# xmcd
#
# Track frame offsets:
#	150
#	13240
#	27346
#	45834
#	61617
#	82598
#	96892
#	123557
#	142831
#	156409
#	178708
#	196866
#
# Disc length: 2807 seconds
#
# Revision: 1
# Processed by: cddbd v1.5.2PL0 Copyright (c) Steve Scherf et al.
# Submitted via: audiograbber 1.83.01
#
DISCID=8c0af50c
DTITLE=Attila and Friends - Playing Traditional Bluegrass
DYEAR=2016
DGENRE=Bluegrass
TTITLE0=Will You Be Loving Another Man
TTITLE1=Goin' Back To Old Kentucky
TTITLE2=Who'll Sing For Me
TTITLE3=Wild Horse (Stony Point)
TTITLE4=Down In The Willow Garden
TTITLE5=I'll Never Shed Another Tear
TTITLE6=Jerusalem Ridge
TTITLE7=Little Cabin Home On The Hill
TTITLE8=More Pretty Girls Than One
TTITLE9=Whiskey Before Breakfast - Soldier's Joy
TTITLE10=Paradise
TTITLE11=Ain't Nobody Gonna Miss Me When I'm Gone
EXTD=
EXTT0=
EXTT1=
EXTT2=
EXTT3=
EXTT4=
EXTT5=
EXTT6=
EXTT7=
EXTT8=
EXTT9=
EXTT10=
EXTT11=
PLAYORDER=
